<?xml version="1.0" encoding="UTF-8"?>
<svg width="100pt" height="100pt" version="1.1" viewBox="0 0 100 100" xmlns="http://www.w3.org/2000/svg">
 <path d="m70.301 46.199c-0.69922-0.5-1.6992-0.5-2.3008-0.39844 0.10156-1.1992 0.19922-2.5 0.30078-3.6992 0.10156-1 0.19922-1.8984 0.19922-2.8984v-2c0-1.3008 0-2.6016-0.10156-4-0.10156-1.8984-0.30078-3.8008-0.5-5.6992 0-0.39844-0.10156-0.80078-0.10156-1.1992-0.19922-1.6016-0.60156-3.3008-1.3984-4.6992-1.3008-2.6016-3.6016-4.6016-6.3008-5.6992 0.30078 0.89844 0.5 1.8984 0.60156 2.8008-0.39844-0.80078-0.89844-1.6016-1.5-2.1016-0.30078-0.30078-0.69922-0.5-1.1016-0.69922-0.5-0.30078-1-0.5-1.5-0.69922-1.8008-0.80078-3.5-1.6016-5.3008-2.5-0.60156-0.30078-1.1992-0.60156-1.6992-1-0.5-0.39844-1-0.89844-1.1992-1.5-0.29688 0.79297-0.39844 1.3945-0.39844 1.9922 0 0.30078 0 0.69922 0.10156 1 0 0.30078 0.19922 0.60156 0.19922 0.80078-0.10156 0-0.10156-0.10156-0.19922-0.10156-0.60156-0.10156-1.3008-0.80078-1.8008-1.1992-0.60156-0.5-1.3008-1-1.8984-1.6016-0.69922-0.60156-1.3984-1.3008-2.1016-1.8984-0.5 0.80078 0 4.6992 0 4.6992-0.69922-0.097657-3.3008-4.6992-3.3008-4.6992-2.1992 2.1992-1.8008 7.8008-1.8008 7.8008-1.3008-0.60156-2.8008-3.8008-2.8008-3.8008-3 3.1016-1.6016 12.102-1.6016 12.102l-1-0.80078c-0.5 1.1992-0.60156 2.6016-0.80078 3.8984-0.19922 1.6016-0.19922 3.3008-0.30078 4.8984v4.1992c0 2.1016 0.39844 4.1016 0.60156 6.1992 0.10156 0.69922 0.19922 1.3984 0.19922 2.1016-0.60156 0-1.3008 0-1.8984 0.5-0.39844 0.30078-1 1-1 2.1992 0 2.8008 1.6992 9.6016 1.8008 9.8008l0.10156 0.30078 0.30078 0.19922c0.19922 0.10156 0.69922 0.39844 1.3008 0.5l-0.10156 19.203 11 12.301 7.1016-0.19922 7.1016 0.19922 11-12.301-0.20312-19.301c0.5-0.10156 1-0.30078 1.1016-0.39844l0.30078-0.19922 0.10156-0.30078c0.10156-0.30078 1.8008-7 1.8008-9.8008-0.003907-1.3008-0.50391-1.8984-1.0039-2.3008zm-24.402 21.902l0.30078 0.69922h7.6016l0.39844-0.80078 1.8984 1c2.6992 4.5-2.3008 4.5-3.6016 4.3984-0.60156 0-1.1992-0.69922-1.8008-1.3008v-1.8008h-1.3008v1.8008c-0.60156 0.69922-1.1992 1.3008-1.8008 1.3008-1.3008 0.10156-6.3008 0.10156-3.6016-4.3984zm1.5-0.70312l2.6992-1.5 2.6992 1.5zm5.1016-6l-2.3984 1.5-2.1016-1.2969h3.9023l2.1016-2-1-1.1016-1.6016 1.5h-2.8984l-1.6992-1.6992-1.1016 1 1.8984 2c-0.80078 0.19922-7.3008 2.1992-10 5.5-0.10156-0.10156-0.10156-0.19922-0.19922-0.30078-0.5-2.3984-3.3984-15.199-3.1992-20l0.80078 0.10156c-0.30078 1.6016-0.69922 6 2.6016 8.3008 1.1992 0.80078 2.6016 1.3008 4.1016 1.3008 2 0 3.8984-0.80078 5.1992-2.1016 0.80078-0.80078 2-4.6016 2.3008-6.5h1.793c0.30078 1.8984 1.5 5.6992 2.3008 6.5 1.3008 1.3008 3.1992 2.1016 5.1992 2.1016 1.5 0 2.8984-0.39844 4.1016-1.3008 3.3984-2.3984 2.8984-6.8008 2.6016-8.3984l0.69922-0.10156c0.19922 4.6016-2.5 17-3.1992 19.801-0.10156 0.19922-0.19922 0.30078-0.19922 0.5-2.9023-3.3047-10.004-5.3047-10.004-5.3047zm-15.102-27.098c1.6016-0.10156 3.1992-0.19922 4.6016 0.5 1.1992 0.60156 2.1992 1.8984 1.8984 3.3008-0.10156 0.30078-0.5 1.3008-0.80078 1.3008 4-0.10156 7.8008-1.5 11.5-3.1016 1.3984-0.60156 2.6992-1.1992 4.1016-1.6016 1.6016-0.5 3.5-0.89844 4.8984 0 1.6992 1.1016 3.3984 3 3.3984 5.3984l-0.69922 5-2.8008 0.19922c-2-0.5-3.8008-0.80078-5.6016-0.80078-3.3984 0-5.5 1-6.3008 1.5h-2.8984c-0.80078-0.5-2.8984-1.5-6.3008-1.5-1.8984 0-3.8984 0.30078-6.1016 0.89844 0 0-2.6992-0.39844-2.6992-0.39844-0.10156-1.3008-0.89844-2.6016-1.1016-3.8008-0.10156-1.1016-0.30078-2.1992 0-3.3008 0.19922-0.80078 0.60156-1.5 1.1992-2.1016 1.0078-0.89453 2.3086-1.3945 3.707-1.4922zm-5.5 23.301c-0.30078-1.3984-1.6992-6.8984-1.6992-9.1016 0-0.5 0.10156-0.80078 0.30078-1 0.30078-0.19922 0.80078-0.19922 1.1992-0.10156l0.5 4.6992-0.10156 5.6992c0.003906-0.097656-0.097656-0.19531-0.19922-0.19531zm36.203 0h-0.10156l-0.10156-9.6016v-0.69922c0.30078-0.10156 1.1016-0.19922 1.5 0.10156 0.19922 0.19922 0.30078 0.5 0.30078 1 0.10156 2.2969-1.1992 7.7969-1.5977 9.1992z"/>
</svg>
