<?xml version="1.0" encoding="UTF-8"?>
<svg width="100pt" height="100pt" version="1.1" viewBox="0 0 100 100" xmlns="http://www.w3.org/2000/svg">
 <path d="m70.301 43.699c-0.69922-0.5-1.6992-0.5-2.3008-0.39844l0.39844-5.6016h-0.10156c1-1.8984 2-5.3008 1.8984-7.6992-0.10156-3.3008-0.39844-5.1016-1.8984-4.8008-1.3984 0.30078-2.6992 3.3008-2.6992 3.3008s0.69922 4.3008 1.1992 9.1992l-0.39844 5-2.8984 0.19922c-2-0.5-3.8008-0.80078-5.5-0.80078-3.3984 0-5.3984 1-6.3008 1.5h-3.6992c-1.1016-0.69922-3.3984-1.5-6.3008-1.5-1.6992 0-3.6016 0.30078-5.6016 0.80078l-3.1992-0.30078-0.60156-6.3008c2.3984 1.3984 6.5 3.8984 5.3984 3.1992-2.8984-1.8008-4.8008-12.301 3.6992-12.398 8.6016-0.10156 13.301 2 17.199-0.10156 3.8984-2.1992 6.1992 0.5 6.1992 0.5s4.3008-5.5 2-9-9.1992-8.1992-18.898-6.1992c-13.898 2.8008-20.898 5.5-17.199 23h0.10156l0.80078 8c-0.60156-0.10156-1.3984 0-2 0.39844-0.39844 0.30078-1 1-1 2.1992 0 2.8008 1.6992 9.6016 1.8008 9.8008l0.10156 0.30078 0.30078 0.19922c0.10156 0.10156 0.60156 0.30078 1.1016 0.5l-0.20312 19.305 11 12.301 7.1016-0.19922 7.1016 0.19922 11-12.301-0.19922-19.398c0.69922-0.10156 1.1992-0.39844 1.3984-0.39844l0.30078-0.19922 0.10156-0.30078c0.10156-0.30078 1.8008-7 1.8008-9.8008-0.003907-1.3008-0.50391-1.9023-1.0039-2.2031zm-4.6016 1.6992c0-0.60156-0.10156-1-0.19922-1.3984h0.19922v1.3984zm-28.398 19c-0.39844-1.8008-3.5-15.398-3.3008-20.301h0.60156c-0.30078 1.5-0.80078 5.8984 2.6016 8.3008 1.1992 0.80078 2.6016 1.3008 4.1016 1.3008 2 0 3.8984-0.80078 5.1992-2.1016 0.89844-1 2-4.8008 2.3008-6.5h2.3984c0.30078 1.6992 1.3984 5.5 2.3008 6.5 1.3008 1.3008 3.1992 2.1016 5.1992 2.1016 1.5 0 2.8984-0.39844 4.1016-1.3008 1.3984-1 2.1016-2.1992 2.5-3.5-0.89844 6.5-3 15.602-3 15.602-2.3008-2.8984-7.3984-4.8008-9.3984-5.3984l1.3008-1.1992-1-1.1016-1.6016 1.5h-3l-2-1.6016-0.90625 1.3008 1.3008 1c-1.6016 0.5-7.1992 2.3984-9.6992 5.5v-0.10156zm14.898 6.7031c-0.60156 0-1.1992-0.69922-1.8008-1.3008v-1.8008h-1.3008v1.8008c-0.60156 0.69922-1.1992 1.3008-1.8008 1.3008-1.3008 0.10156-6.3008 0.10156-3.6016-4.3984l1.8984-1 0.60156 1.5h7.3008l0.69922-1.3008 1.5 0.80078c2.9062 4.4961-2.1953 4.4961-3.4961 4.3984zm-3.1992-11.203h1.6016l-0.80078 0.5zm-0.19922 4.1016h2.1016l2.1016 1.1016-0.30078 0.5h-5.3984l-0.30078-0.69922zm-16.902-9c-0.30078-1.3984-1.6992-6.8984-1.6992-9.1016 0-0.5 0.10156-0.80078 0.30078-1 0.30078-0.19922 0.89844-0.19922 1.3008-0.10156l0.19922 1.6016-0.10156 8.6016v0zm36.203 0c-0.10156 0.10156-0.30078 0.10156-0.39844 0.10156l-0.10156-6.5 0.30078-3.8008c0.30078-0.10156 1.1016-0.19922 1.5 0.10156 0.19922 0.19922 0.30078 0.5 0.30078 1 0.097656 2.2969-1.2031 7.6992-1.6016 9.0977z"/>
</svg>
