<?xml version="1.0" encoding="UTF-8"?>
<svg width="100pt" height="100pt" version="1.1" viewBox="0 0 100 100" xmlns="http://www.w3.org/2000/svg">
 <path d="m66.625 81.832c12.008 0 21.883 2.582 33.375 5.1406-0.66016 1.2539-0.91797 4.1133-0.86719 5.5742h-98.262c0.050781-1.4609-0.20703-4.3242-0.86719-5.5742 11.492-2.5586 21.367-5.1406 33.375-5.1406-0.40625 6.4219 33.09 6.2617 33.254 0zm-34.52-44.98c5.8711-0.93359 11.836-1.3789 17.895-1.3008 5.3359 0.066407 10.746 0.53516 16.227 1.4258h0.23047v0.039063c0.72266 0.12109 1.4492 0.24609 2.1719 0.37891-0.76172-3.0664-1.1992-6.2109-2.1094-9.2383-2.7109-9.0391-5.8906-15.703-16.219-7.1875-10.332-8.5156-13.508-1.8516-16.219 7.1875-0.85547 2.8516-1.2969 5.8047-1.9805 8.6992zm36.82 1.6562l-0.070312 0.37109c-0.82031-0.15234-1.6367-0.30078-2.4492-0.43359-0.32031 4.3516-2.0273 6.1836-4.2383 7.6367-0.98828 0.64844-2.0625 0.98828-3.1367 1-1.0859 0.011719-2.1562-0.3125-3.1289-0.98828-2.1914-1.5234-3.9648-3.6719-4.0508-9.0859-0.62109-0.019531-1.2461-0.03125-1.8672-0.039062l-0.33984-0.003906c-0.078125 5.4375-1.9414 7.2578-4.1367 8.7852-0.97266 0.67578-2.0469 1-3.1289 0.98828-1.0742-0.011719-2.1484-0.35156-3.1367-1-2.3086-1.5195-3.9883-3.2148-4.1875-7.8789-1.1133 0.14844-2.2266 0.3125-3.332 0.49219-0.066406 0.25-0.14062 0.5-0.21484 0.74609-0.40234-5.0039-0.80859-10.008-1.2109-15.012-0.46875-5.8008-0.85938-6.0898 3.7109-10.512 5.4297-5.25 10.859-5.4844 16.293-6.1289 5.4297 0.64844 10.859 0.87891 16.293 6.1289 4.5742 4.4219 4.1797 4.7109 3.7109 10.512-0.40234 5.0039-0.80859 10.008-1.2109 15.012-0.058594-0.19531-0.11719-0.39453-0.17188-0.59375zm-20.699-1.5469c-3.957 0.015624-7.875 0.26172-11.758 0.71875 0.14844 4.2266 1.5703 5.5664 3.5547 6.8711 0.75781 0.5 1.5703 0.75781 2.3672 0.76562 0.78906 0.007813 1.5781-0.23438 2.3047-0.73828 1.8555-1.2891 3.4609-2.7148 3.5312-7.6211zm16.773 1.2578c-3.9492-0.60547-7.8594-0.98828-11.73-1.1602 0.085938 4.8438 1.5977 6.582 3.4414 7.8672 0.72656 0.50391 1.5156 0.74609 2.3047 0.73828 0.80078-0.007812 1.6094-0.26953 2.3672-0.76562 1.8984-1.25 3.3516-2.7422 3.6094-6.6758zm-29.52 12.172c-0.23047 0.69531-0.20703 7.2461-0.21484 7.2617-0.14453 0.050781-2.1641-0.8125-2.3281-0.84766 0.11328 0.27344 3.625 4.9609 3.5547 5.8164-0.125 1.5742 3.5586 7.6211 5.6133 9.1641 1.0039 1.3555 4.7734 2.6523 7.8516 2.6055 3.0781 0.042969 6.8477-1.25 7.8516-2.6055 2.0508-1.543 5.7383-7.5938 5.6133-9.1641-0.066406-0.85547 3.4414-5.543 3.5547-5.8164-0.16406 0.035156-2.1875 0.89844-2.3281 0.84766-0.007813-0.019532 0.011718-6.5664-0.21484-7.2617-1.2188 3.6914-3.7891 8.3516-7.2695 5.2578-0.082031-0.39453-1.5508-2.2305-2.0625-2.4844-1.957-0.96875-2.9688 0.73828-5.1445 0.91797-2.1758-0.17969-3.1914-1.8867-5.1445-0.91797-0.51172 0.25391-1.9805 2.0898-2.0625 2.4844-3.4805 3.0898-6.0547-1.5703-7.2695-5.2578zm14.477 8.5547c-0.64453 0.015626-1.3984 0.13672-2.3086 0.43359-1.4375 0.46875-5.1289-0.42578-4.9414-0.63281 1.4453-1.5938 3.9648-2.9492 6.0039-2.6992 0.3125 0.039063 0.75391 0.039063 1.25 0.042969 0.49609 0 0.93359-0.003906 1.2461-0.042969 2.0391-0.25 4.5586 1.1055 6.0039 2.6992 0.1875 0.20703-3.5039 1.1016-4.9414 0.63281-0.91406-0.29688-1.6641-0.41797-2.3086-0.43359z" fill-rule="evenodd"/>
</svg>
