<?xml version="1.0" encoding="UTF-8"?>
<svg width="100pt" height="100pt" version="1.1" viewBox="0 0 100 100" xmlns="http://www.w3.org/2000/svg">
 <path d="m38.105 24.25c-2.3633 0.95703-5.625 8.8555-5.9805 11.57 5.9766-0.67187 12.043 0.27734 18.199 0.35156 0.16797 0.003906 0.33203 0.003906 0.5 0.003906s0.33203 0 0.5-0.003906c6.3711-0.078125 12.637-1.0898 18.812-0.27734-0.10547-1.0078-0.24219-2.1484-0.43359-3.6133-0.36328-0.19922-0.27734-0.078125-0.67969-0.39453-0.25-0.19531-0.35938-0.17578-0.43359-0.39453-1.8242-0.60547-0.67578-2.5664-1.3359-2.7891-0.13281-0.40234-0.81641-1.4336-0.81641-1.4336-0.71484-3.5703-1.7695-3.4492-1.9023-4.1094-0.71484-0.24609-1.5977 0.31641-2.2617 0.31641 0.33594-0.80469 3.6719-6.1484 4.4141-6.707 0.25391-0.09375-0.80078-0.27344 0.79688 0.007813 8.8633 1.5703 5.7656 20.648 3.0781 27.477-0.0625-2.2539-0.10547-3.7773-0.17578-5.1484-0.69922-0.082031-0.82812 0.007812-1.8242-0.125 0.75391 11.316-3.8008 10.855-9.2656 10.91-6.832 0.40234-4.1797-7.9922-7.5938-12.199l-0.36328 0.003906-0.51953 0.007813-0.51953-0.007813-0.36328-0.003906c-3.4141 4.2109-0.75781 12.602-7.5938 12.199-5.4648-0.054687-10.02 0.40625-9.2656-10.91-0.60938 0.082031-0.89453 0.078125-1.1875 0.085937-0.15625 2.5156-0.33203 5.6445-0.30859 5.832-0.75781-1.0742-3.9648-9.6406-3.9648-11.75 0-3.4258 4.3828-13.617 1.5469-13.617-0.3125 0-0.64844 0.03125-0.73437 0.26562 0-1.3828 2.375-3.8711 2.3477-3.8789-0.53906 0.042969-0.53125 0.27344-0.95312 0.44922 1.3125-1.2266 0.99219-1.1367 3.3789-3.4414 4.7617-4.5938 20.855-10.242 27.219-6.3906 2.2695 1.375 4.9961 4.5781 4.9961 7.3281 0 1.1797-1.7969 2.3672-2.2188 3.7031-0.24609 0.78516-1.2188 4.7227-1.2188 5.0625-0.66797 0-0.76562-0.13672-1.2734-0.67188-0.64062 3.0312-4.8906-1.4062-5.457 1.3281-1.3906 0.28906-3.1367 0.0625-4.5078-0.65625-0.33984 1.3203-1.1836 0.78906-1.8047 0.14062-2.3203 0.36719-2.2773-1.3086-3.6523 1.0742-0.19922 0.34766-6.5898 0.17188-7.1875 0.41406zm15.012 28.562l-1.0312 0.34375c3.3438 0 8.0312 4.8945 9.9492 1.9766 0.76953 4.7539-11.129 0.42969-11.152 0.42969 0-1.4688 0.47656-2.8867 2.2344-2.75zm-4.9375 0l1.0312 0.34375c-3.3438 0-8.0312 4.8945-9.9492 1.9766-0.76953 4.7539 11.129 0.42969 11.152 0.42969 0-1.4688-0.47656-2.8867-2.2344-2.75zm18.445 31.223c12.008 0 21.883 2.582 33.375 5.1406-0.66016 1.25-0.91797 4.1133-0.86719 5.5742h-98.266c0.050781-1.4609-0.20703-4.3242-0.86719-5.5742 11.492-2.5586 21.367-5.1406 33.375-5.1406-0.40625 6.418 33.09 6.2617 33.254 0zm-15.977-20.695c-0.65625 0.20312-1.4648 0.082031-1.5391 0.40625 0.62891 0.85938 0.48828 1.4297 0.30469 2.3125-9.457 1.9609-5.0078-2.0586-9.1484-5.125-2.4727-1.832-5.2461-4.9766-6.1602-7.9023l-0.1875-0.30078c-0.1875-0.20703-1.6367-2.7266-1.7734-3.0234-0.21875-0.023437-0.53516-0.73438-0.57422-0.80078 0.46484 4.6719-0.17969 4.5898 0.98828 9.7344 1.4414 6.3438 10.805 17.324 17.645 19.414 0.078125 0.23828 0.21484 0.25 0.44141 0.23047 0.22656 0.015625 0.36328 0.007813 0.44141-0.23047 6.8398-2.0898 16.203-13.07 17.645-19.414 1.168-5.1445 0.51953-5.0625 0.98828-9.7344-0.039062 0.0625-0.35938 0.77734-0.57422 0.80078-0.13672 0.29688-1.582 2.8164-1.7734 3.0234l-0.1875 0.30078c-0.91406 2.9258-3.6836 6.0703-6.1602 7.9023-4.1406 3.0664 0.30859 7.0859-9.1484 5.125-0.18359-0.88281-0.32422-1.4531 0.30469-2.3125-0.074219-0.32812-0.88281-0.20312-1.5391-0.40625z" fill-rule="evenodd"/>
</svg>
