<?xml version="1.0" encoding="UTF-8"?>
<svg width="60pt" height="60pt" version="1.1" viewBox="0 0 100 100" xmlns="http://www.w3.org/2000/svg">
 <path d="m33.227 23.285c-1.9648 6.4727-2.3008 10.207-1.832 13.52l2.7695 0.30859c0.59375-1.1562 1.5117-2.1367 2.6484-2.8398 0.41016-0.25 0.84375-0.46484 1.3008-0.64063 0.87109-0.32812 1.8203-0.51172 2.8125-0.51172 1.6641 0 3.2031 0.51172 4.4453 1.3711 0.29688 0.20703 0.57812 0.43359 0.83984 0.67578 0.54687 0.51172 1.0117 1.1016 1.3711 1.75 0.25391-0.28125 0.55859-0.51172 0.90625-0.69922 1.2461-0.66406 2.3828-0.66406 3.6328 0 0.34766 0.18359 0.65234 0.41797 0.90625 0.69922 0.35938-0.64844 0.82422-1.2383 1.3711-1.75 0.26172-0.24609 0.54297-0.46875 0.83984-0.67578 1.2461-0.85938 2.7812-1.3711 4.4453-1.3711 0.99219 0 1.9414 0.18359 2.8125 0.51172 0.45703 0.17188 0.89453 0.39063 1.3008 0.64063 1.1367 0.69922 2.0547 1.6836 2.6484 2.8398l2.9883-0.33203c0.46484-3.3086 0.125-7.0391-1.8359-13.496-2.1602-3.8633-7.3047-6.4453-17.18-6.9805-9.8789 0.53906-15.02 3.1172-17.18 6.9805zm-1.6953 14.348c0.62109 3.375 2.0312 6.5039 3.3242 11.961-0.67188-0.27344-0.39453-0.15234-0.83984-0.38281-0.1875-0.10156-1.0234-0.54688-1.168-0.67578-1.7539-0.60156-7.332-4.9922-7.582-5.0508-1.0625-4.4883 2.6992-2.8477-1.7617-5.1562-2.9648-1.5352 0.96484-3.457-3.1211-5.3828-4.5664-2.1562 0.69531-4.3555-0.39453-6.5234-3.9531-0.5625 3.6562-2.9922 0.34375-5.8711-0.38672-0.33594-0.94531-1.4102-0.13281-1.6328 0.46875-1.2578 6.8633-0.22266 4.7773-3.0625-3.9648-3.1562 3.5781-1.9688 4.3125-3.7031 0.90234-2.1445-2.0703-4.1602 5.3789-3.957 1.168 0.03125 0.57422-2.0195 6.1484-0.65625 0.34375 0.085938 1.043 0.15625 1.4453 0.15625-0.21484-1.8867 1.8281-2.5977 4.1602-2.0273 1.7852 0.4375 1.8242 0.17969 2.2031-0.57031 1.0703-0.15234-0.16797-0.51953 1.7773-0.51953 1.9453 0 0.70703 0.36719 1.7773 0.51953 0.375 0.75 0.41797 1.0078 2.2031 0.57031 2.332-0.57031 4.375 0.13672 4.1602 2.0273 0.40625 0 1.1016-0.074218 1.4453-0.15625 5.5742-1.3672 4.9805 0.6875 6.1484 0.65625 7.4492-0.20312 4.4766 1.8125 5.3789 3.957 0.73047 1.7383 8.2773 0.55078 4.3125 3.7031-2.0859 2.8398 4.3086 1.8047 4.7773 3.0625 0.8125 0.22266 0.25391 1.2969-0.13281 1.6328-3.3086 2.8789 4.3008 5.3086 0.34766 5.8711-1.0898 2.168 4.1758 4.3672-0.39453 6.5234-4.0859 1.9258-0.15625 3.8477-3.1211 5.3828-4.4609 2.3086-0.69922 0.66797-1.7617 5.1562-0.25 0.058594-5.8281 4.4492-7.582 5.0508-0.14453 0.12891-0.97656 0.57422-1.168 0.67578-0.44141 0.23047-0.16797 0.10937-0.83594 0.38281 1.2969-5.4688 2.7109-8.6016 3.3281-11.988l-2.5156 0.28125c0.097657 0.27344 0.17969 0.55469 0.24219 0.83984 0.10156 0.45703 0.15234 0.92969 0.15234 1.4102 0 1.9453-0.84375 3.7031-2.207 4.9727-1.3555 1.2656-3.2266 2.0469-5.2852 2.0469-2.0625 0-3.9336-0.78125-5.2891-2.0469-1.3633-1.2734-2.207-3.0312-2.207-4.9727 0-0.84375 0.16016-1.6562 0.45312-2.4062-0.23047-0.33594-0.53125-0.60547-0.90234-0.80078-0.94922-0.50781-1.918-0.50781-2.8711 0-0.37109 0.19531-0.67188 0.46484-0.90234 0.80078 0.29297 0.75 0.45312 1.5625 0.45312 2.4062 0 1.9453-0.84375 3.7031-2.207 4.9727-1.3555 1.2656-3.2266 2.0469-5.2852 2.0469-2.0625 0-3.9336-0.78125-5.2891-2.0469-1.3633-1.2734-2.207-3.0312-2.207-4.9727 0-0.48047 0.050781-0.95312 0.15234-1.4102 0.0625-0.28516 0.14453-0.56641 0.24219-0.83984l-2.293-0.25391zm3.9531 15.625c-0.22656 0.69531-0.20703 7.2461-0.21484 7.2617-0.14453 0.050781-2.1641-0.8125-2.3281-0.84766 0.11328 0.27344 3.625 4.9609 3.5547 5.8164-0.125 1.5742 3.5586 7.6211 5.6133 9.1641 1.0039 1.3555 4.7773 2.6523 7.8516 2.6055 3.0781 0.042969 6.8477-1.25 7.8516-2.6055 2.0547-1.543 5.7383-7.5938 5.6133-9.1641-0.066406-0.85547 3.4414-5.543 3.5547-5.8164-0.16406 0.035156-2.1875 0.89844-2.3281 0.84766-0.007813-0.019531 0.015625-6.5664-0.21484-7.2617-1.2148 3.6914-3.7891 8.3516-7.2695 5.2578-0.082031-0.39453-1.5508-2.2305-2.0625-2.4844-1.957-0.96875-2.9688 0.73828-5.1445 0.91797-2.1758-0.17969-3.1875-1.8867-5.1445-0.91797-0.51172 0.25391-1.9805 2.0898-2.0625 2.4844-3.4805 3.0898-6.0547-1.5703-7.2695-5.2578zm14.477 8.5547c-0.64453 0.015625-1.3945 0.13672-2.3086 0.43359-1.4375 0.46875-5.1328-0.42578-4.9414-0.63281 1.4453-1.5938 3.9648-2.9492 6.0039-2.6992 0.3125 0.039063 0.75 0.039063 1.2461 0.042969 0.49609 0 0.9375-0.003906 1.25-0.042969 2.0391-0.25 4.5586 1.1055 6.0039 2.6992 0.1875 0.20703-3.5078 1.1016-4.9414 0.63281-0.91406-0.29688-1.6641-0.41797-2.3086-0.43359zm16.664 22.883c12.008 0 21.883 2.582 33.375 5.1406-0.66016 1.25-0.91797 4.1133-0.86719 5.5742h-98.266c0.050781-1.4609-0.20703-4.3242-0.86719-5.5742 11.488-2.5586 21.367-5.1406 33.375-5.1406-0.41016 6.418 33.09 6.2617 33.254 0z" fill-rule="evenodd"/>
</svg>
