<?xml version="1.0" encoding="UTF-8"?>
<svg width="100pt" height="100pt" version="1.1" viewBox="0 0 100 100" xmlns="http://www.w3.org/2000/svg">
 <path d="m32.203 44.625c-0.066406 2.2031 0.078125 4.4531 1.8516 5.8086-0.36719-1.418-0.49609-3.3281-0.32422-5.9062-0.83984 0.10938-1.0078 0.054687-1.5273 0.10156zm3.957 8.9922c0.078125 1.9688-0.40234 4.3555 1.7695 5.6211 1.0352 0.60547 1.9766 1.582 3.3203 0.9375 2.4141-1.1641 6.5742-4.2305 8.7539-2.7109 2.1797-1.5195 6.3359 1.5469 8.7539 2.7109 1.3438 0.64844 2.2812-0.32812 3.3203-0.9375 2.168-1.2656 1.6875-3.6523 1.7695-5.6211-1.5664 0.96875-3.7266 0.89062-6.0664 0.91016-6.2695 0.37109-3.832-7.3281-6.9648-11.188l-0.33203 0.003906-0.47656 0.007812-0.47656-0.007812-0.33203-0.003906c-3.1289 3.8594-0.69531 11.559-6.9648 11.188-2.3438-0.023438-4.5039 0.058594-6.0664-0.91016zm29.785-3.1875c1.7734-1.3555 1.9141-3.6055 1.8516-5.8086-0.51953-0.046875-0.6875 0.011718-1.5273-0.10156 0.17188 2.5781 0.042969 4.4883-0.32422 5.9062zm1.7461-8.7383c-0.38672-8.457-1.6484-14.871-5.9375-14.223-4.1172 1.1055-8.0664 1.4062-11.758 0.37109-3.6875 1.0312-7.6406 0.73438-11.754-0.37109-4.2891-0.64844-5.5508 5.7656-5.9375 14.223 5.6562-0.73828 11.398 0.1875 17.234 0.25781 0.15234 0.003906 0.30469 0.003906 0.46094 0.003906 0.15234 0 0.30469 0 0.46094-0.003906 5.8359-0.070313 11.578-0.99609 17.234-0.25781zm-1.6953 47.992c11.551 0 21.055 2.4844 32.109 4.9492-0.63281 1.2031-0.88281 3.957-0.83594 5.3633h-94.547c0.046875-1.4062-0.19922-4.1602-0.83594-5.3633 11.055-2.4609 20.559-4.9492 32.109-4.9492-0.39062 6.1797 31.836 6.0234 31.996 0zm-15.996-27.637c-0.78516 0.92969-2.9141 0.79688-5.0195 2.9023-1.7695 1.7695 3.2383 4.5039 4.8281 2.6055-0.035156-0.37109-0.12109-0.78906 0.19141-1 0.25 0.29687 0.25 0.38672 0.19531 1 1.5898 1.8984 6.5977-0.83594 4.8281-2.6055-2.1055-2.1055-4.2383-1.9727-5.0195-2.9023zm0.53516 30.648c-0.019531 0.125-0.035156 0.20703-0.054687 0.23438-0.12109 0-0.28516-0.027344-0.47656-0.074219-0.19531 0.046875-0.35547 0.074219-0.47656 0.074219-0.019532-0.023438-0.039063-0.10547-0.054688-0.23438-2.6797-0.89062-8.6953-4.0391-8.7305-3.9844-0.058594 0.25391 0.050781 0.45312-0.042969 0.71484-0.58203 0.19922-5.8516-6.332-5.9375-6.3633-0.3125 0.20703-0.42578 0.96094-0.50781 1.2656-0.44141-0.20312-1.7773-6.3398-2.2109-7.4336-0.28125-0.050781-0.78516 0.054688-1.0547-0.089843-0.61328-3.2031-0.98047-1.2734-0.83984-6.3945 0.011718-0.48438 0.042968-0.33203-0.23438-0.8125-0.17578-0.30078-0.042968-0.29297-0.10937-0.63281-0.52344 0-0.48828 0.40625-0.79688 0.39844-0.29297-1.7461 1.4648-10.27-0.19531-10.48-0.75-0.097656 0.078125-8.5859 0.79688-10.43 0.44531-1.1406 1.5508-4.8086 1.0352-5.9531-1.125-3.8945-5.3125-15.105-2.8516-18.559 0.74609-1.0469 1.7812-2.7734 3.4844-3.125 0.45703-1.3203-0.79297-1.5273 0.97656-4.6445 0.76562-1.3516 2.4688-4.6797 4.1445-4.9453 0.72656-1.4062 6.5703-2.6172 8.4141-2.8359-1.707-5.0039 0.86328-8.7109 5.1914-8.3906 4.3242-0.32031 6.8984 3.3867 5.1914 8.3906 1.8438 0.21875 7.6836 1.4297 8.4141 2.8359 1.6797 0.26563 3.3789 3.5938 4.1484 4.9453 1.7695 3.1172 0.51953 3.3242 0.97656 4.6445 1.7031 0.35156 2.7383 2.0781 3.4844 3.125 2.457 3.4531-1.7266 14.664-2.8516 18.559-0.51953 1.1445 0.58984 4.8125 1.0352 5.9531 0.71875 1.8438 1.5469 10.332 0.79688 10.43-1.6562 0.21094 0.10156 8.7383-0.19531 10.48-0.3125 0.007813-0.27734-0.39844-0.79688-0.39844-0.070312 0.33594 0.0625 0.33203-0.10938 0.63281-0.27734 0.48047-0.24609 0.32812-0.23438 0.8125 0.14062 5.1211-0.23047 3.1914-0.83984 6.3945-0.26953 0.14062-0.76953 0.039062-1.0547 0.089843-0.43359 1.0898-1.7695 7.2305-2.2109 7.4336-0.085937-0.30469-0.19531-1.0586-0.51172-1.2656-0.085938 0.03125-5.3555 6.5625-5.9375 6.3633-0.089844-0.26172 0.015625-0.46094-0.042969-0.71484-0.035156-0.058594-6.0469 3.0938-8.7266 3.9844z" fill-rule="evenodd"/>
</svg>
