<?xml version="1.0" encoding="UTF-8"?>
<svg width="100pt" height="100pt" version="1.1" viewBox="0 0 100 100" xmlns="http://www.w3.org/2000/svg">
 <path d="m50.062 5.2227l-2.6953 0.14062c-11.125 1.1914-15.211 5.9492-17.488 9.7617-5.8828 9.8633-2.9102 6.7812-4.0547 16.062-0.29297 2.3945-4.6172 2.9414-1.7773 8.5117 0.003906 0.003906 0.34375 1.4922 0.89844 1.9883 3.7734 1.0039-3.0156 8.6992 5.6992 10.473 0.73438 0.14844 5.1211 10.457 7.9219 14.91 0.53516 0.85547 3.5 2.3242 4.7734 3.0156 3.1133 4.9492 10.445 4.75 13.434 0 1.2734-0.69141 4.2383-2.1602 4.7773-3.0156 2.8008-4.4531 7.1875-14.758 7.9219-14.91 8.7148-1.7773 1.9258-9.4688 5.6992-10.473 0.55469-0.49609 0.89844-1.9805 0.89844-1.9883 2.8438-5.5703-1.4805-6.1172-1.7773-8.5117-0.30859-2.5195 1.4258-2.6445-0.30859-11.02-0.17969-0.035157-2.582-1.0625-3.0508-1.3125 0.47266-0.44922 1.4609-1.1562 0.75391-2.3516-1.2422-2.1016-1.2031 0.61719-2.75-5.1953-5.0352-2.4453-10.652-5.3516-16.188-5.9453l-2.6953-0.14062zm2.4023 31.875c-0.23047-0.33594-0.53125-0.60547-0.90234-0.80078-0.95312-0.50781-1.9219-0.50781-2.8711 0-0.37109 0.19531-0.67188 0.46484-0.90234 0.80078 0.29297 0.75 0.45313 1.5625 0.45313 2.4062 0 1.9453-0.84375 3.7031-2.207 4.9727-1.3555 1.2656-3.2227 2.0469-5.2852 2.0469s-3.9336-0.78125-5.2852-2.0469c-1.3633-1.2734-2.207-3.0312-2.207-4.9727 0-0.48047 0.050782-0.95312 0.15234-1.4102 0.0625-0.28516 0.14453-0.56641 0.24219-0.83984l-1.3945-0.15625c0.21484 3.5898 1.6016 9.7109 1.3398 13.035 0.48828 2.5039 2.5156 3.6289 4.6992 3.8828 1.6914 0.19531 9.6211-4.7578 10.215-1.8438 0.78906 3.8594-3.7539 2.1445-6.3984 3.8086-3.1797 1.9961 0.29297 6.4219 2.9805 6.4219 0.050781-0.22266 0.57422-1.3555 0.23438-2.0938l0.61719-0.74609c3.0039 0.20703 5.2227 0.18359 8.2305 0l0.61719 0.74609c-0.33984 0.73828 0.18359 1.8711 0.23438 2.0938 2.6875 0 6.1602-4.4219 2.9805-6.4219-2.6445-1.6602-7.1836 0.050781-6.3984-3.8086 0.58984-2.9102 8.5156 2.043 10.215 1.8438 2.1875-0.25391 4.2148-1.3828 4.6992-3.8828-0.26172-3.3203 1.125-9.4297 1.3398-13.02l-1.2617 0.14062c0.10156 0.27344 0.17969 0.55469 0.24219 0.83984 0.10156 0.45703 0.15234 0.92969 0.15234 1.4102 0 1.9453-0.84375 3.7031-2.207 4.9727-1.3555 1.2656-3.2227 2.0469-5.2852 2.0469s-3.9336-0.78125-5.2852-2.0469c-1.3633-1.2734-2.207-3.0312-2.207-4.9727 0-0.84375 0.16016-1.6562 0.45312-2.4062zm-20.234-0.82031l1.7578 0.19531c0.58984-1.1562 1.5117-2.1367 2.6484-2.8398 0.40625-0.25 0.84375-0.46484 1.3008-0.64062 0.86719-0.32813 1.8164-0.51172 2.8125-0.51172 1.6641 0 3.2031 0.51172 4.4453 1.3711 0.29688 0.20703 0.57813 0.43359 0.83984 0.67578 0.54688 0.51172 1.0117 1.1016 1.3711 1.75 0.25391-0.28125 0.55859-0.51172 0.90625-0.69922 1.2461-0.66406 2.3828-0.66406 3.6328 0 0.34766 0.18359 0.65234 0.41797 0.90625 0.69922 0.35938-0.64844 0.82422-1.2383 1.3711-1.75 0.26172-0.24609 0.54297-0.46875 0.83984-0.67578 1.2461-0.85937 2.7852-1.3711 4.4453-1.3711 0.99219 0 1.9414 0.18359 2.8125 0.51172 0.45703 0.17187 0.89453 0.39062 1.3008 0.64062 1.1367 0.69922 2.0547 1.6836 2.6484 2.8398l1.6289-0.17969c0-0.67578-0.058594-1.2188-0.21484-1.5742-1.3203-3.0078-0.69141-2.1797-1.2891-5.1055-0.23438-1.1406-1.5078-5.3008-2.8633-5.5781-0.19922-0.125-11.895 0.058594-13.465 0.058594-1.5703 0-13.266-0.18359-13.465-0.058594-1.3555 0.27734-2.6289 4.4375-2.8594 5.5781-0.59766 2.9297 0.03125 2.1016-1.2891 5.1055-0.15234 0.35156-0.21875 0.88672-0.21484 1.5586zm34.395 47.785c12.008 0 21.883 2.582 33.375 5.1406-0.66016 1.25-0.91797 4.1133-0.86719 5.5742h-98.266c0.050781-1.4609-0.20703-4.3242-0.86719-5.5742 11.488-2.5586 21.367-5.1406 33.375-5.1406-0.41016 6.418 33.09 6.2617 33.254 0z" fill-rule="evenodd"/>
</svg>
