<?xml version="1.0" encoding="UTF-8"?>
<svg width="100pt" height="100pt" version="1.1" viewBox="0 0 100 100" xmlns="http://www.w3.org/2000/svg">
 <path d="m66.625 81.832c12.008 0 21.883 2.582 33.375 5.1406-0.66016 1.25-0.91797 4.1133-0.86719 5.5742h-98.262c0.050781-1.4609-0.21094-4.3242-0.86719-5.5742 11.488-2.5586 21.367-5.1406 33.375-5.1406-0.40625 6.4219 33.09 6.2617 33.254 0zm-32.613-68.254c5.4297-5.25 10.859-5.4844 16.289-6.1289 5.4297 0.64453 10.863 0.87891 16.293 6.1289 4.5742 4.4219 4.1797 4.7109 3.7148 10.512-0.40234 5.0039-0.80859 10.008-1.2109 15.012-1.0781-3.5938-1.4961-7.3555-2.5742-10.949-2.7109-9.0391-5.8906-15.703-16.219-7.1875-10.328-8.5156-13.508-1.8516-16.219 7.1875-1.0781 3.5938-1.4961 7.3555-2.5742 10.949-0.40234-5.0039-0.80859-10.008-1.2109-15.012-0.46484-5.8008-0.85938-6.0898 3.7148-10.512zm1.4688 36.812c-0.23047 0.69531-0.20703 7.2461-0.21484 7.2617-0.14453 0.050781-2.1641-0.8125-2.3281-0.84766 0.11328 0.27344 3.625 4.9609 3.5547 5.8164-0.125 1.5742 3.5586 7.6211 5.6133 9.168 1.0039 1.3555 4.7773 2.6484 7.8555 2.6055 3.0781 0.042969 6.8477-1.25 7.8516-2.6055 2.0508-1.543 5.7383-7.5938 5.6133-9.168-0.066406-0.85547 3.4414-5.543 3.5547-5.8164-0.16406 0.035156-2.1875 0.89844-2.3281 0.84766-0.007813-0.019532 0.015625-6.5664-0.21484-7.2617-1.2148 3.6914-3.7891 8.3516-7.2695 5.2578-0.082031-0.39453-1.5508-2.2305-2.0625-2.4844-1.957-0.96875-2.9688 0.73828-5.1445 0.91797-2.1758-0.17969-3.1914-1.8906-5.1484-0.91797-0.51172 0.25391-1.9805 2.0898-2.0625 2.4844-3.4805 3.0898-6.0547-1.5703-7.2695-5.2578zm14.477 8.5547c-0.64453 0.015626-1.3984 0.13672-2.3086 0.43359-1.4375 0.46875-5.1328-0.42578-4.9414-0.63281 1.4453-1.5938 3.9648-2.9492 6.0039-2.6992 0.3125 0.039063 0.75 0.039063 1.25 0.042969 0.49609 0 0.93359-0.003906 1.2461-0.042969 2.0391-0.25 4.5586 1.1055 6.0039 2.6992 0.1875 0.20703-3.5039 1.1016-4.9414 0.63281-0.91406-0.29688-1.6641-0.41797-2.3086-0.43359z" fill-rule="evenodd"/>
</svg>
