<?xml version="1.0" encoding="UTF-8"?>
<svg width="100pt" height="100pt" version="1.1" viewBox="0 0 100 100" xmlns="http://www.w3.org/2000/svg">
 <path d="m50.062 5.2227l-2.6953 0.14062c-11.125 1.1914-15.211 5.9492-17.488 9.7578-5.8828 9.8633-2.9102 6.7812-4.0547 16.062-0.29297 2.3945-4.6172 2.9414-1.7773 8.5117 0.003906 0.003907 0.34375 1.4922 0.89844 1.9844 3.7734 1.0039-3.0156 8.6992 5.6992 10.473 0.73438 0.14844 5.1211 10.457 7.9219 14.91 0.53516 0.85547 3.5 2.3281 4.7734 3.0156 3.1133 4.9492 10.445 4.75 13.434 0 1.2734-0.6875 4.2383-2.1602 4.7773-3.0156 2.8008-4.4531 7.1875-14.758 7.9219-14.91 8.7148-1.7773 1.9258-9.4688 5.6992-10.473 0.55469-0.49609 0.89844-1.9805 0.89844-1.9844 2.8438-5.5703-1.4805-6.1172-1.7773-8.5117-0.30859-2.5195 1.4258-2.6445-0.30859-11.02-0.17969-0.035156-2.582-1.0625-3.0508-1.3125 0.47266-0.44531 1.4609-1.1562 0.75391-2.3516-1.2422-2.1016-1.2031 0.61719-2.75-5.1914-5.0352-2.4492-10.652-5.3555-16.188-5.9453l-2.6953-0.14062zm16.562 78.84c12.008 0 21.883 2.582 33.375 5.1406-0.66016 1.25-0.91797 4.1133-0.86719 5.5742h-98.266c0.050781-1.4609-0.20703-4.3242-0.86719-5.5742 11.488-2.5586 21.367-5.1406 33.375-5.1406-0.41016 6.4219 33.09 6.2617 33.254 0zm-20.676-24.5l-0.61719 0.74609c0.33984 0.73828-0.18359 1.8711-0.23438 2.0938-2.6875 0-6.1602-4.4219-2.9805-6.4219 2.6445-1.6602 7.1836 0.050781 6.3984-3.8047-0.59375-2.9141-8.5234 2.0391-10.215 1.8438-2.1836-0.25391-4.2109-1.3828-4.6992-3.8828 0.33984-4.3008-2.0859-13.281-1.1523-15.41 1.3203-3.0078 0.69141-2.1797 1.2891-5.1094 0.23438-1.1406 1.5078-5.3008 2.8594-5.5781 0.19922-0.125 11.895 0.058594 13.465 0.058594s13.266-0.18359 13.465-0.058594c1.3555 0.27734 2.6289 4.4375 2.8633 5.5781 0.59766 2.9297-0.03125 2.1016 1.2891 5.1094 0.93359 2.1289-1.4922 11.109-1.1523 15.41-0.48828 2.5039-2.5156 3.6289-4.6992 3.8828-1.6992 0.19922-9.625-4.7539-10.215-1.8438-0.78906 3.8594 3.7539 2.1445 6.3984 3.8047 3.1797 2-0.28906 6.4219-2.9805 6.4219-0.050781-0.22266-0.57812-1.3516-0.23438-2.0938l-0.61719-0.74609c-3.0039 0.18359-5.2266 0.20312-8.2305 0z" fill-rule="evenodd"/>
</svg>
