<?xml version="1.0" encoding="UTF-8"?>
<svg width="100pt" height="100pt" version="1.1" viewBox="0 0 100 100" xmlns="http://www.w3.org/2000/svg">
 <path d="m50.535 65.457c-1.1836 0.60547-3.8867 1.1133-6.0508 2.8008 0 0.23438-0.25391 0.62109-0.17188 1.7578 0.074219 1.0664 1.1719 3.2852 1.918 4.125 0.39844 0.44922 1.6094 1.6211 2.3281 1.2891 0.082031-0.035157 0.46094-0.50391 0.58203-0.53906 0.40625-1.0625 0.86328-0.5625-0.23047-1.8008-0.085937-0.097656-0.69141-1.0625-0.36719-1.0664 0.44531 0.17187 1.1875 0.25391 1.9922 0.25781m0-6.8242c1.1836 0.60547 3.8867 1.1133 6.0547 2.8008 0 0.23438 0.25 0.62109 0.17188 1.7578-0.074219 1.0664-1.1719 3.2852-1.9141 4.125-0.39844 0.44922-1.6094 1.6211-2.3281 1.2891-0.082031-0.035157-0.45703-0.50391-0.57812-0.53906-0.40625-1.0625-0.86328-0.5625 0.23047-1.8008 0.085937-0.097656 0.69141-1.0625 0.36719-1.0664-0.44531 0.17187-1.1914 0.25391-1.9922 0.25781m-15.508-26.094c0.51563-1.125 1.3789-2.082 2.4648-2.75 0.27734-0.17188 0.56641-0.32031 0.87109-0.45312 0.85547-0.37109 1.8086-0.57422 2.8164-0.57422 1.6016 0 3.0742 0.52344 4.2227 1.3945 0.17969 0.13672 0.34766 0.28125 0.51172 0.43359 1.2031 1.1211 1.9453 2.6719 1.9453 4.3789 0 1.7109-0.74219 3.2578-1.9453 4.3828-1.2109 1.1289-2.8828 1.8281-4.7344 1.8281-1.8516 0-3.5234-0.69922-4.7344-1.8281-1.2031-1.1211-1.9453-2.6719-1.9453-4.3828 0-0.42578 0.046875-0.83984 0.13281-1.2422 0.089844-0.41406 0.22656-0.8125 0.39844-1.1875zm31.598 38.395c12.008 0 21.883 2.582 33.375 5.1406-0.66016 1.25-0.91797 4.1133-0.86719 5.5742h-98.262c0.050782-1.4609-0.21094-4.3242-0.86719-5.5742 11.488-2.5586 21.367-5.1406 33.375-5.1406-0.40625 6.418 33.09 6.2617 33.254 0zm-16.648-21.266l-0.8125 0.070313c-3.3086 0.28906-6.9688 3.8516-7.0039 7.1016-0.074219 6.3711 3.6758 12.219 8.375 12.488 4.6992-0.26953 8.4492-6.1172 8.375-12.488-0.035156-3.25-3.6953-6.8125-7.0039-7.1016l-0.8125-0.070313c-0.17969-0.015625-0.36719-0.015625-0.55859-0.003906-0.1875-0.011719-0.375-0.011719-0.55859 0.003906zm-12.711-36.168c-1.0273 0.78125-3.0781 8.2383-3.8203 10.211-0.69922 1.8438-1.4023 5.0312-1.7969 7.9141l2.7734 0.30859c0.58984-1.1562 1.5117-2.1406 2.6484-2.8398 0.40625-0.25 0.84375-0.46484 1.3008-0.64063 0.86719-0.32812 1.8164-0.51172 2.8125-0.51172 1.6641 0 3.2031 0.51172 4.4453 1.3711 0.29688 0.20312 0.57812 0.43359 0.83984 0.67578 0.54688 0.51172 1.0117 1.1016 1.3711 1.75 0.25391-0.28125 0.55859-0.51172 0.90625-0.69922 1.2461-0.66406 2.3828-0.66406 3.6328 0 0.34766 0.18359 0.65234 0.41797 0.90625 0.69922 0.35938-0.64844 0.82422-1.2383 1.3711-1.75 0.26172-0.24609 0.54297-0.47266 0.83984-0.67578 1.2422-0.85938 2.7812-1.3711 4.4453-1.3711 0.99219 0 1.9453 0.18359 2.8125 0.51172 0.45703 0.17188 0.89062 0.39063 1.3008 0.64063 1.1328 0.69922 2.0547 1.6797 2.6484 2.8398l2.625-0.29297c-0.027344-0.42969-0.03125-0.91406-0.011719-1.4766 0.17969-4.5938-4.2656-7.832-2.9492-9.4922 0.54297-0.6875-0.25391-1.6914-0.3125-2.0195-1.8711-0.20312-23.668-9.0391-28.777-5.1523zm-5.7188 18.93c-0.15234 1.3047-0.23438 2.5117-0.20703 3.4492 0.019532 0.68359-0.035156 0.24609-0.23437 0.55859-0.72266-1.1406-3.4805-6.1172-4.375-6.3008-0.51953-2.5195-1.2109-1.7305-1.0586-6.125 0.13672-3.9961-3.2031-5.4023-1.418-10.453l0.14062-0.40234c2.1133-3.6758 1.8438-6.6328 1.9062-6.7305 0.87109-1.3477 2.8164-2.7383 4.3242-2.5625 0.29297-0.71484-0.91406-1.418-1.332-1.7969 0.65625-0.33594 2.0156 0.44531 2.5625 0.82422 0.023437-0.019531 0.44922-2.9102 0.66016-3.3867 1.625 1.7148 0.47656 3.6797 2.0156 0.20703 1.875-4.2305 12.707-3.9297 12.445-7 0.62109-0.097656 0.11719-0.53516 0.62891-0.67188 0.12109 0.14844 0.75391 1.957 0.74609 2.0469 1.2773 0.082031 3.5508-2.8867 3.7969-3.0352 1.1445 0.84766-0.14453 4.8047 3.9805 1.6602 0.18359-0.14062 0.91797-0.70312 1.1289-0.62891 1.2695 6.4961 4.1328-2.6484 4.3086 2.7188 0.13281 4.0234 3.9648-0.19922 3.9648-0.19922 0.625 0.83984 1.7148 4.457 2.5625 5.0117 0.44141-0.14062 1.4648-1.3203 1.418-1.8125 0.35937-0.33203 0.35547-0.23438 0.46875-0.54297-0.074219 0.69531 1.4453 4.1719 1.5898 4.875 3.4688 1.1992 7.7617 6.8398 4.7656 10.168-1.2461 1.3828 0.30078 7.8086-0.80078 10.48-1.4531 3.5273-2.7539 7.2617-4.2461 10.73-0.30859 0.71484-0.4375 2.5234-0.4375 3.2969l-0.3125-0.30078c-0.23438-1.6016-0.88281-2.2969-1.1367-4.0625l-2.3672 0.26562c0.10156 0.27344 0.17969 0.55469 0.24219 0.83984 0.10156 0.45703 0.15234 0.92969 0.15234 1.4102 0 1.9453-0.84375 3.7031-2.207 4.9727-1.3555 1.2656-3.2266 2.0469-5.2891 2.0469s-3.9336-0.78516-5.2852-2.0469c-1.3633-1.2734-2.207-3.0312-2.207-4.9727 0-0.84375 0.16016-1.6562 0.45312-2.4062-0.23047-0.33594-0.53125-0.60547-0.90234-0.80078-0.95312-0.50781-1.9219-0.50781-2.8711 0-0.37109 0.19531-0.67187 0.46484-0.90234 0.80078 0.29297 0.75 0.45312 1.5625 0.45312 2.4062 0 1.9453-0.84375 3.7031-2.207 4.9727-1.3555 1.2656-3.2266 2.0469-5.2891 2.0469s-3.9336-0.78516-5.2852-2.0469c-1.3633-1.2734-2.207-3.0312-2.207-4.9727 0-0.48047 0.050782-0.95312 0.15234-1.4102 0.0625-0.28516 0.14453-0.56641 0.24219-0.83984l-2.5352-0.28125zm34.543 0.10547c-0.51562-1.125-1.3789-2.082-2.4648-2.75-0.27734-0.17188-0.56641-0.32031-0.87109-0.45312-0.85547-0.37109-1.8086-0.57422-2.8164-0.57422-1.6016 0-3.0742 0.52344-4.2227 1.3945-0.17969 0.13672-0.35156 0.28125-0.51172 0.43359-1.2031 1.1211-1.9453 2.6719-1.9453 4.3789 0 1.7109 0.74219 3.2578 1.9453 4.3828 1.2109 1.1289 2.8828 1.8281 4.7344 1.8281 1.8516 0 3.5273-0.69922 4.7344-1.8281 1.2031-1.1211 1.9453-2.6719 1.9453-4.3828 0-0.42578-0.046875-0.83984-0.13281-1.2422-0.089844-0.41406-0.22266-0.8125-0.39453-1.1875z" fill-rule="evenodd"/>
</svg>
