<?xml version="1.0" encoding="UTF-8"?>
<svg width="100pt" height="100pt" version="1.1" viewBox="0 0 100 100" xmlns="http://www.w3.org/2000/svg">
 <path d="m31.543 37.715c5.9062-0.875 11.895-1.2891 17.98-1.2148 5.7109 0.070312 11.5 0.57031 17.363 1.5273h0.24609v0.039062c0.66406 0.10938 1.3281 0.22656 1.9961 0.34375 0.82812-3.7656 0.74219-7.5938-1.5391-15.121-2.1602-3.8633-7.3047-6.4453-17.184-6.9844-9.8789 0.53906-15.02 3.1172-17.18 6.9844-2.1445 7.0664-2.3516 10.871-1.6836 14.426zm3.9414 15.547c-0.23047 0.69531-0.20703 7.2461-0.21484 7.2617-0.14453 0.050781-2.1641-0.8125-2.3281-0.84766 0.11328 0.27344 3.625 4.9609 3.5547 5.8164-0.125 1.5742 3.5586 7.6211 5.6133 9.168 1.0039 1.3555 4.7734 2.6484 7.8516 2.6055 3.0781 0.042969 6.8477-1.25 7.8516-2.6055 2.0508-1.543 5.7383-7.5938 5.6133-9.168-0.066406-0.85547 3.4414-5.543 3.5547-5.8164-0.16406 0.035157-2.1875 0.89844-2.3281 0.84766-0.007813-0.019532 0.015625-6.5664-0.21484-7.2617-1.2148 3.6914-3.7891 8.3516-7.2695 5.2578-0.082031-0.39453-1.5508-2.2305-2.0625-2.4844-1.957-0.96875-2.9688 0.73828-5.1445 0.91797-2.1758-0.17969-3.1914-1.8906-5.1484-0.91797-0.51172 0.25391-1.9805 2.0898-2.0625 2.4844-3.4805 3.0898-6.0547-1.5703-7.2695-5.2578zm14.477 8.5547c-0.64453 0.015625-1.3984 0.13672-2.3086 0.43359-1.4375 0.46875-5.1328-0.42578-4.9414-0.63281 1.4453-1.5938 3.9648-2.9492 6.0039-2.6992 0.3125 0.039062 0.75391 0.039062 1.25 0.042969 0.49609 0 0.93359-0.003907 1.2461-0.042969 2.0391-0.25 4.5586 1.1055 6.0039 2.6992 0.1875 0.20703-3.5039 1.1016-4.9414 0.63281-0.91406-0.29688-1.6641-0.41797-2.3086-0.43359zm16.664 22.883c12.008 0 21.883 2.582 33.375 5.1406-0.66016 1.25-0.91797 4.1133-0.86719 5.5742h-98.262c0.050781-1.4609-0.21094-4.3242-0.86719-5.5742 11.488-2.5586 21.367-5.1406 33.375-5.1406-0.40625 6.4219 33.09 6.2617 33.254 0zm2.1367-44.812c-0.5625-0.10156-1.125-0.19922-1.6836-0.29297-0.34375 4.6562-2.2617 7.9062-4.6289 9.4609-1.0547 0.69531-2.207 1.0586-3.3555 1.0703-1.1602 0.011719-2.3086-0.33203-3.3516-1.0547-2.3438-1.6289-4.1523-5.2188-4.2422-11.012-0.66797-0.019532-1.332-0.035156-2-0.042969l-0.36328-0.003906c-0.082031 5.8203-1.8906 9.4219-4.2422 11.059-1.0391 0.72266-2.1875 1.0703-3.3477 1.0547-1.1484-0.011719-2.3008-0.375-3.3555-1.0703-2.4688-1.6211-4.4531-5.0938-4.6641-10.086-0.55469 0.074219-1.1055 0.14844-1.6562 0.23047 0.71484 2.8398 1.8906 5.7891 2.9805 10.398-0.67187-0.27344-0.39453-0.15234-0.83594-0.38672-0.19141-0.10156-1.0234-0.54688-1.168-0.67578-1.7539-0.60156-7.332-4.9922-7.582-5.0508-1.0664-4.4883 2.6992-2.8438-1.7617-5.1562-2.9648-1.5352 0.96484-3.457-3.1211-5.3828-4.5664-2.1562 0.69531-4.3555-0.39453-6.5234-3.9531-0.5625 3.6562-2.9922 0.34766-5.8711-0.38672-0.33594-0.94531-1.4102-0.13672-1.6328 0.46875-1.2578 6.8633-0.22266 4.7773-3.0625-3.9648-3.1562 3.582-1.9648 4.3125-3.7031 0.90234-2.1445-2.0703-4.1602 5.3789-3.957 1.1719 0.03125 0.57422-2.0195 6.1484-0.65625 0.34375 0.085938 1.0391 0.15625 1.4453 0.15625-0.21484-1.8906 1.8281-2.5977 4.1602-2.0273 1.7852 0.4375 1.8242 0.17969 2.2031-0.57031 1.0703-0.15234-0.16797-0.51953 1.7773-0.51953 1.9492 0 0.70703 0.36719 1.7773 0.51953 0.375 0.75 0.41797 1.0078 2.2031 0.57031 2.332-0.57031 4.375 0.13672 4.1602 2.0273 0.40625 0 1.1016-0.074218 1.4453-0.15625 5.5742-1.3672 4.9805 0.6875 6.1484 0.65625 7.4492-0.20312 4.4766 1.8125 5.3789 3.957 0.73047 1.7383 8.2773 0.55078 4.3125 3.7031-2.0859 2.8398 4.3086 1.8047 4.7773 3.0625 0.80859 0.22266 0.25391 1.2969-0.13672 1.6328-3.3086 2.8789 4.3008 5.3086 0.34766 5.8711-1.0898 2.168 4.1758 4.3672-0.39453 6.5234-4.0859 1.9258-0.15625 3.8477-3.1211 5.3828-4.4609 2.3086-0.69922 0.66797-1.7617 5.1562-0.24609 0.058594-5.8281 4.4492-7.582 5.0508-0.14453 0.12891-0.97656 0.57422-1.168 0.67578-0.44141 0.23047-0.16797 0.10937-0.83594 0.38672 1.0039-4.2383 2.082-7.0742 2.8008-9.7109zm-21.137-1.8789c-4.2344 0.019532-8.4297 0.28125-12.582 0.76953 0.16016 4.5234 1.8633 7.6133 3.9844 9.0078 0.8125 0.53516 1.6797 0.8125 2.5352 0.82031 0.84375 0.007812 1.6914-0.25 2.4688-0.78906 1.9883-1.3828 3.5195-4.5625 3.5938-9.8086zm17.949 1.3477c-4.2305-0.64844-8.4102-1.0586-12.555-1.2422 0.09375 5.1875 1.6172 8.332 3.5938 9.7031 0.77734 0.53906 1.6211 0.79688 2.4648 0.78906 0.85547-0.007813 1.7266-0.28906 2.5352-0.82031 2.0312-1.3359 3.6797-4.2227 3.957-8.4336z"/>
</svg>
