<?xml version="1.0" encoding="UTF-8"?>
<svg width="60pt" height="60pt" version="1.1" viewBox="0 0 100 100" xmlns="http://www.w3.org/2000/svg">
 <path d="m32.121 44.426c-2.0039-5.0352-5.707-11.641-2.25-17.492 0.92578-5.4297 3.0586-5.7031 0.39844-11.324-0.76953-1.6328-0.80859-3.3398-1.0625-3.875 7.5117 2.1914 3.5-1.4453 3.918-2.6562 5.7266 2.5859 4.1172 2.7617 4.7617-2.1406 7.0664 1.2188 1.4922 0.35156 7.1953-0.82422 0.77734-3.75 12.988-3.1172 14.844 1.75 0.88281 0.26953 1.4727 3.2148 3.918-0.92969 0.12891-0.47266-0.11719-1.4609 0.17188-2.0078 1.0195 1.1523 0.67188 2.8594 0.98047 3.4531 4.4336 0.59375 3.1953-1.1758 8.5039 2.5273-5.4492 2.2148-8.4336-4.2227-3.043 7.0938 2.8594 6.0039 1.2539 24.898-2.6953 26.59-1.0078-3.1914-1.0859-10.133-3.8086-14.371-0.003906-0.003906-1.0547-2.4766-1.0898-2.9102-1.7852-1.3672-5.4258-7.1094-4.4961-9.1953-2.7656 2.9492 0.19922 2.5703-6.5898 6.6758-2.6641 1.6133-8.1992-1.0156-11.801 1.6406-9.8086 7.2383-5.2227 14.629-7.8555 17.996zm3.3633 9.7305c-0.23047 0.69531-0.20703 7.2461-0.21484 7.2617-0.14453 0.050781-2.1641-0.8125-2.3281-0.84766 0.11328 0.27344 3.625 4.9609 3.5547 5.8164-0.125 1.5742 3.5586 7.6211 5.6133 9.168 1.0039 1.3555 4.7734 2.6484 7.8516 2.6055 3.0781 0.042969 6.8477-1.25 7.8516-2.6055 2.0508-1.543 5.7344-7.5938 5.6133-9.168-0.066406-0.85547 3.4414-5.543 3.5547-5.8164-0.16406 0.035157-2.1875 0.89844-2.3281 0.84766-0.003906-0.019531 0.015625-6.5664-0.21484-7.2617-1.2188 3.6914-3.7891 8.3516-7.2695 5.2578-0.082031-0.39453-1.5508-2.2305-2.0625-2.4844-1.957-0.96875-2.9688 0.73828-5.1445 0.91797-2.1758-0.17969-3.1914-1.8906-5.1445-0.91797-0.51172 0.25391-1.9805 2.0898-2.0625 2.4844-3.4844 3.0898-6.0547-1.5703-7.2695-5.2578zm14.477 8.5547c-0.64453 0.015624-1.3984 0.13672-2.3086 0.43359-1.4375 0.46875-5.1289-0.42578-4.9414-0.63281 1.4453-1.5938 3.9648-2.9492 6.0039-2.6992 0.3125 0.039062 0.75391 0.039062 1.25 0.042969 0.49609 0 0.93359-0.003907 1.2461-0.042969 2.0391-0.25 4.5586 1.1055 6.0039 2.6992 0.1875 0.20703-3.5039 1.1016-4.9414 0.63281-0.91406-0.29688-1.6641-0.41797-2.3086-0.43359zm16.664 22.883c12.008 0 21.883 2.582 33.375 5.1406-0.66016 1.25-0.91797 4.1133-0.86719 5.5742h-98.262c0.050781-1.4609-0.20703-4.3242-0.86719-5.5742 11.492-2.5586 21.367-5.1406 33.375-5.1406-0.40625 6.4219 33.09 6.2617 33.254 0z" fill-rule="evenodd"/>
</svg>
