<?xml version="1.0" encoding="UTF-8"?>
<svg width="100pt" height="100pt" version="1.1" viewBox="0 0 100 100" xmlns="http://www.w3.org/2000/svg">
 <path d="m32.121 44.422c-1.3594-3.4102-3.4961-7.543-3.6562-11.672l-0.003906-0.007812c-2.2148-3.8516-1.3828-4.4297-0.99219-8.5586 0.39844-4.1992 2.0664-6.1758 2.3711-7.2266 0.10547-0.21875 0.36328-0.54297 0.65234-0.87109-0.066407-0.15234-0.14063-0.3125-0.21875-0.47266-0.76953-1.6328-0.80859-3.3398-1.0625-3.875 2.0547 0.59766 3.2461 0.76172 3.9023 0.66016 0.21484-0.38281 0.42969-0.77344 0.64062-1.1523-0.21484-0.74609-0.79688-1.6641-0.625-2.1641 0.67969 0.18359 1.168 0.40234 1.5273 0.61719 0.30469-0.48828 0.54297-0.8125 0.65625-0.83594 0.12891-0.36719-0.15234-1.4766-0.15234-2.168 0.85547 1.2461 1.6719 1.1289 2.3555 0.80859 0.11719-0.17969 0.24219-0.36719 0.37891-0.5625l0.51562 0.089844c0.078125-0.035156 0.15234-0.0625 0.22266-0.078125 0.55859-0.12109 2.4219-0.51562 3.4883-0.59375 1.1094-0.085937 2.043-0.16016 2.8789-0.22266l0.089844-0.019531c0.75-3.6328 12.242-3.1523 14.641 1.3125 1.0469 0.34766 2.0078 0.73437 2.8867 1.1953 0.35156-0.33984 0.75781-0.87891 1.2344-1.6836 0.12891-0.47656-0.11719-1.4609 0.17188-2.0078 1.0195 1.1523 0.67187 2.8594 0.98047 3.4531 4.4336 0.59375 3.1953-1.1758 8.5039 2.5273-5.4492 2.2148-8.4336-4.2227-3.043 7.0938 2.2188 4.6602 1.75 17.082-0.41797 23.203-0.015625 0.88281-0.023437 1.6641-0.023437 2.3047 0-0.47266-0.070313-1.0938-0.18359-1.7578-0.58594 1.4727-1.2812 2.5-2.0703 2.8398-0.80469-2.5508-1.0195-7.5039-2.4648-11.551-3.8594-4.2344-9.4336-7.3789-14.609-7.6445-0.24609-0.011719-0.49609-0.035156-0.75-0.066406-2.8984 0.26172-7.0586-1.0312-9.9648 1.1133-9.8086 7.2383-5.2227 14.629-7.8555 17.992zm27.973 15.672c0.78125 4.6289 5.8125-0.29297 7.3477-2.3867 0.58203 2.4531-8.4531 10.582-10.402 11.039-2.2031 0.51953-4.2812 2.5234-6.6523 2.5234-2.3672 0-4.4492-2.0039-6.6523-2.5234-1.9492-0.45703-10.984-8.5859-10.402-11.039 1.5352 2.0938 6.5625 7.0156 7.3477 2.3867 1.2539-7.4141 18.16-7.4219 19.418 0zm-9.7109 2.3711c1.7305 3.4531 3.7734 4.4336 6.2383 2.0195 1.9336-1.6055 1.4414-3.1055 0.55078-4.5859-3.9102-3.3242-9.668-3.3242-13.578 0-0.89062 1.4805-1.3828 2.9805 0.55078 4.5859 2.4648 2.418 4.5078 1.4336 6.2383-2.0195zm16.242 23.129c12.008 0 21.883 2.582 33.375 5.1406-0.66016 1.25-0.91797 4.1133-0.86719 5.5742h-98.262c0.050781-1.4609-0.20703-4.3242-0.86719-5.5742 11.492-2.5586 21.367-5.1406 33.375-5.1406-0.40625 6.418 33.09 6.2617 33.254 0z" fill-rule="evenodd"/>
</svg>
