<?xml version="1.0" encoding="UTF-8"?>
<svg width="60pt" height="60pt" version="1.1" viewBox="0 0 100 100" xmlns="http://www.w3.org/2000/svg">
 <path d="m66.625 84.469c12.008 0 21.883 2.582 33.375 5.1406-0.66016 1.25-0.91797 4.1133-0.86719 5.5742h-98.266c0.050781-1.4609-0.20703-4.3242-0.86719-5.5742 11.492-2.5586 21.367-5.1406 33.375-5.1406-0.40625 6.418 33.09 6.2617 33.254 0zm-14.113-45.719c-0.20703-0.30469-0.48438-0.55078-0.82031-0.73047-0.86719-0.46094-1.7461-0.46094-2.6094 0-0.33594 0.17969-0.61328 0.42188-0.82031 0.73047 0.26562 0.68359 0.41016 1.4219 0.41016 2.1914 0 1.7656-0.76562 3.3672-2.0078 4.5234-1.2344 1.1523-2.9336 1.8633-4.8125 1.8633-1.875 0-3.5781-0.71094-4.8125-1.8633-1.2383-1.1562-2.0078-2.7578-2.0078-4.5234 0-0.4375 0.046875-0.87109 0.13672-1.2852 0.058593-0.26172 0.13281-0.51562 0.22266-0.76562l-2.1758-0.53516c-0.003906 0.11719-0.003906 0.23438-0.003906 0.34766-0.46484-0.10547-2.9922-6.4844-3.3398-7.0898-2.2148-3.8516-1.3828-4.4297-0.99219-8.5625 0.24609-2.5742 6.2344-14.988 7.8438-15.32 0.12891-0.36719-0.15234-1.4766-0.15234-2.1719 1.3008 1.8984 4.332-0.13672 6.957-0.33594 10.566-0.80078 22.684-1.6992 27.109 10.73 1.4961 4.1953 0.79688 20.73 0.79688 26.422 0-1.0742-0.35156-2.9062-0.78906-4.2578l-5.2695 0.76953c0.089844 0.25 0.16406 0.50391 0.22266 0.76562 0.089844 0.41406 0.14062 0.84766 0.14062 1.2852 0 1.7656-0.76562 3.3672-2.0078 4.5234-1.2344 1.1523-2.9336 1.8633-4.8125 1.8633-1.875 0-3.5781-0.71094-4.8125-1.8633-1.2422-1.1562-2.0078-2.7578-2.0078-4.5234 0-0.76953 0.14453-1.5078 0.41016-2.1914zm-19.262-1.1445l2.4531 0.57812c0.53906-1.0508 1.375-1.9453 2.4102-2.582 0.37109-0.23047 0.76562-0.42578 1.1836-0.58203 0.79297-0.30078 1.6562-0.46484 2.5586-0.46484 1.5156 0 2.9141 0.46094 4.0469 1.2461 0.26953 0.1875 0.52734 0.39453 0.76562 0.61719 0.5 0.46484 0.92188 1 1.2461 1.5898 0.23438-0.25391 0.50781-0.46484 0.82422-0.63281 1.1367-0.60547 2.168-0.60547 3.3047 0 0.31641 0.16797 0.59375 0.38281 0.82422 0.63281 0.32812-0.58984 0.75-1.125 1.2461-1.5898 0.23828-0.22266 0.49219-0.42969 0.76562-0.61719 1.1328-0.78516 2.5312-1.2461 4.0469-1.2461 0.90234 0 1.7656 0.16406 2.5586 0.46484 0.41797 0.16016 0.8125 0.35547 1.1836 0.58203 1.0312 0.63672 1.8711 1.5312 2.4102 2.582l5.3242-0.76953c-0.039063-0.097656-0.082032-0.19141-0.12109-0.27734-3.1016-6.6484-11.012-12.508-18.164-12.875-2.0703-0.10547-14.586-3.9062-14.691-6.4219-0.61328 6.5508-3.7969 13.777-4.1641 19.77zm26.457 21.363c0.78516 4.6289 5.8125-0.29297 7.3477-2.3867 0.58203 2.4531-8.4531 10.582-10.402 11.039-2.2031 0.51953-4.2812 2.5234-6.6523 2.5234-2.3672 0-4.4492-2.0039-6.6523-2.5234-1.9492-0.45703-10.984-8.5859-10.402-11.039 1.5352 2.0938 6.5625 7.0156 7.3477 2.3867 1.2539-7.4141 18.16-7.4219 19.418 0zm-9.7109 2.3711c1.7305 3.4531 3.7734 4.4336 6.2383 2.0156 1.9336-1.6055 1.4414-3.1055 0.55078-4.5859-3.9102-3.3242-9.668-3.3242-13.578 0-0.89062 1.4805-1.3828 2.9805 0.55078 4.5859 2.4648 2.418 4.5078 1.4336 6.2383-2.0156z" fill-rule="evenodd"/>
</svg>
