<svg xmlns="http://www.w3.org/2000/svg" xmlns:xlink="http://www.w3.org/1999/xlink" version="1.1" x="0px" y="0px" viewBox="0 0 512 512" enable-background="new 0 0 512 512" xml:space="preserve"><g><path d="M275.4,252.2c-7-2-10.6-2.9-55.9,98.6l-10.8-70.2h15v-16.4h-65.5v16.4h15l-10.8,69.9C117.5,249.4,113.9,250.1,107,252   c-61.7,17.3-84.4,67.6-90.1,95.7c0,0-14,52.2-14.9,161.9h377.8c0,0,1.9-82.2-14.2-158.3C365.6,351.4,356.5,275.2,275.4,252.2z    M189.7,280.5h2.3l15.1,97.9c-5,11.3-10.4,23.6-16.2,37c-5.9-13.5-11.2-25.8-16.2-37.2L189.7,280.5z M297.3,493.3v-81.8h-16.4v81.8   h-180v-81.8H84.5v81.8H18.4c0-80.4,14.6-142.4,14.6-142.4c13.7-59.2,59.9-77.4,73-81.6c11.6,20.2,84.9,187.2,84.9,187.2   s73.7-167,85.4-187.1c66,23.6,73.3,85.1,73.3,85.1c9.1,45.6,13.8,92.2,13.9,138.7H297.3z"></path><path d="M190.9,247.8c56,0,98.2-79.4,98.2-130.9c0-54.1-44-98.2-98.2-98.2s-98.2,44-98.2,98.2C92.7,168.4,134.9,247.8,190.9,247.8z    M190.9,35.1c45.1,0,81.8,36.7,81.8,81.8c0,44.2-37.4,114.6-81.8,114.6c-44.4,0-81.8-70.4-81.8-114.6   C109.1,71.8,145.8,35.1,190.9,35.1z"></path><path d="M485.5,2.4H338.2c-13.5,0-24.5,11-24.5,24.5v90c0,11.9,8.6,21.9,19.9,24.1l-6.3,43.9l55.9-43.4h102.4   c13.5,0,24.5-11,24.5-24.5v-90C510,13.4,499,2.4,485.5,2.4z M493.6,116.9c0,4.5-3.7,8.2-8.2,8.2h-108l-28.3,22l3.1-22h-14.1   c-4.5,0-8.2-3.7-8.2-8.2v-90c0-4.5,3.7-8.2,8.2-8.2h147.3c4.5,0,8.2,3.7,8.2,8.2V116.9z"></path><rect x="354.5" y="43.3" width="114.6" height="16.4"></rect><rect x="354.5" y="84.2" width="114.6" height="16.4"></rect></g></svg>