<svg xmlns="http://www.w3.org/2000/svg" xmlns:xlink="http://www.w3.org/1999/xlink" version="1.1" x="0px" y="0px" viewBox="0 0 100 100" enable-background="new 0 0 100 100" xml:space="preserve"><path d="M50.742,27.99c-7.088,0-12.854-5.766-12.854-12.854S43.654,2.282,50.742,2.282s12.854,5.767,12.854,12.854  S57.83,27.99,50.742,27.99z M50.742,6.458c-4.784,0-8.677,3.893-8.677,8.678s3.893,8.677,8.677,8.677s8.677-3.893,8.677-8.677  S55.526,6.458,50.742,6.458z"></path><path d="M81.119,67.85h-8.8v-6.033H29.1l-0.186,5.941h-8.396L9.582,57.871v-9.326h82.135v8.708L81.119,67.85z M76.496,63.672h2.894  l8.15-8.149v-2.8H13.759v3.294l8.367,7.563h2.74l0.186-5.939h51.444V63.672z"></path><polygon points="71.715,96.898 31.385,96.898 25.229,60.566 29.345,59.869 34.913,92.721 67.538,92.721 67.538,92.537   67.808,92.537 72.199,59.939 76.339,60.497 71.715,94.818 "></polygon><path d="M32.201,46.103c-0.326-2.313-0.463-7.442,1.953-10.358c1.35-1.627,3.346-2.419,6.101-2.419h20.788l0.215-0.011  c0.123-0.011,3.054-0.262,5.292,1.961c2.082,2.067,2.989,5.811,2.665,10.827h4.178c0.359-6.247-0.958-10.918-3.964-13.854  c-3.366-3.286-7.615-3.159-8.472-3.099H40.255c-4.02,0-7.153,1.322-9.316,3.929c-3.444,4.155-3.226,10.354-2.937,13.024H32.201z"></path></svg>