<svg xmlns="http://www.w3.org/2000/svg" xmlns:xlink="http://www.w3.org/1999/xlink" version="1.1" x="0px" y="0px" viewBox="0 0 100 100" enable-background="new 0 0 100 100" xml:space="preserve"><path d="M45.115,38.429c-0.316,0-0.632-0.1-0.897-0.298l-6.511-4.864c-2.665,0.817-5.497,1.231-8.433,1.231  c-11.869,0-21.525-6.98-21.525-15.561c0-8.58,9.656-15.561,21.525-15.561c11.87,0,21.526,6.98,21.526,15.561  c0,4.219-2.341,8.225-6.466,11.139l2.198,6.364c0.215,0.623-0.001,1.313-0.533,1.701C45.736,38.333,45.426,38.429,45.115,38.429z   M37.984,30.101c0.319,0,0.635,0.102,0.897,0.298l3.223,2.408l-0.984-2.85c-0.229-0.662,0.031-1.394,0.626-1.764  c3.848-2.392,6.055-5.767,6.055-9.257c0-6.926-8.311-12.561-18.526-12.561c-10.215,0-18.525,5.635-18.525,12.561  c0,6.926,8.311,12.561,18.525,12.561c2.887,0,5.655-0.443,8.228-1.317C37.659,30.127,37.822,30.101,37.984,30.101z"></path><path d="M62.086,45.152c-5.255,0-9.529-4.274-9.529-9.528s4.274-9.529,9.529-9.529c5.253,0,9.527,4.275,9.527,9.529  S67.339,45.152,62.086,45.152z M62.086,29.191c-3.547,0-6.433,2.886-6.433,6.433s2.886,6.433,6.433,6.433  c3.546,0,6.432-2.886,6.432-6.433S65.632,29.191,62.086,29.191z"></path><path d="M84.603,74.698H78.08v-4.472H46.043l-0.138,4.404h-6.224l-8.106-7.328V60.39h60.884v6.454L84.603,74.698z M81.176,71.603  h2.146l6.041-6.042v-2.075H34.671v2.442l6.203,5.607h2.03l0.138-4.404h38.134V71.603z"></path><polygon points="77.632,96.231 47.736,96.231 43.173,69.301 46.226,68.783 50.352,93.135 74.536,93.135 74.536,92.998   74.735,92.998 77.99,68.835 81.06,69.248 77.632,94.689 "></polygon><path d="M48.342,58.578c-0.241-1.715-0.344-5.517,1.447-7.678c1.001-1.206,2.48-1.793,4.523-1.793h15.409l0.158-0.008  c0.092-0.008,2.264-0.194,3.924,1.454c1.543,1.532,2.215,4.308,1.975,8.025h3.098c0.267-4.631-0.71-8.093-2.938-10.27  c-2.496-2.435-5.646-2.341-6.279-2.297H54.313c-2.98,0-5.304,0.98-6.906,2.913c-2.555,3.08-2.392,7.675-2.178,9.654H48.342z"></path></svg>