<svg xmlns="http://www.w3.org/2000/svg" xmlns:xlink="http://www.w3.org/1999/xlink" viewBox="0 0 60 60" version="1.1" x="0px" y="0px"><title>27 -Talkshow- (Outline)</title><desc>Created with Sketch.</desc><g stroke="none" stroke-width="1" fill="none" fill-rule="evenodd"><g transform="translate(-840.000000, -642.000000)"><g transform="translate(841.000000, 643.000000)"><path d="M39,44 C39,49.523 34.523,54 29,54 C23.477,54 19,49.523 19,44 C19,38.477 23.477,34 29,34 C34.523,34 39,38.477 39,44 L39,44 Z" stroke="#000000" stroke-width="2"></path><path d="M34.4545,44 C34.4545,49.523 31.5105,54 28.9995,54 C26.4895,54 23.5455,49.523 23.5455,44 C23.5455,38.477 26.4895,34 28.9995,34 C31.5105,34 34.4545,38.477 34.4545,44 L34.4545,44 Z" stroke="#000000" stroke-width="2"></path><path d="M19,44 L39,44" stroke="#000000" stroke-width="2"></path><path d="M29,34 L29,54" stroke="#000000" stroke-width="2"></path><polygon stroke="#000000" stroke-width="2" stroke-linecap="round" stroke-linejoin="round" points="2 58 56 58 56 30 2 30"></polygon><polygon stroke="#000000" stroke-width="2" stroke-linecap="round" stroke-linejoin="round" points="0 30 58 30 58 26 0 26"></polygon><path d="M47,5 C47,7.761 44.761,10 42,10 C39.239,10 37,7.761 37,5 C37,2.239 39.239,0 42,0 C44.761,0 47,2.239 47,5 L47,5 Z" stroke="#000000" stroke-width="2" stroke-linecap="round" stroke-linejoin="round"></path><path d="M46.6517,11.5 C45.3397,12.44 43.7367,13 41.9997,13 C40.2627,13 38.6597,12.44 37.3487,11.5 C35.3237,12.952 33.9997,15.319 33.9997,18 L33.9997,26 L49.9997,26 L49.9997,18 C49.9997,15.319 48.6767,12.952 46.6517,11.5 L46.6517,11.5 Z" stroke="#000000" stroke-width="2" stroke-linecap="round" stroke-linejoin="round"></path><path d="M15,25.9999 C15.463,23.7179 17.581,21.9999 20,21.9999 C22.419,21.9999 24.537,23.7179 25,25.9999 L15,25.9999 L15,25.9999 Z" stroke="#000000" stroke-width="2" stroke-linecap="round" stroke-linejoin="round"></path><path d="M27,10 L25.084,10 C22.276,10 20,12.276 20,15.084 L20,22" stroke="#000000" stroke-width="2" stroke-linecap="round" stroke-linejoin="round"></path><path d="M29,10 C29,11.105 28.105,12 27,12 C25.895,12 25,11.105 25,10 C25,8.895 25.895,8 27,8 C28.105,8 29,8.895 29,10" fill="#000000"></path><path d="M45,16 L43.43,12.86 C42.965,12.945 42.49,13 42,13 C41.51,13 41.035,12.945 40.57,12.86 L39,16 L42,21 L45,16 L45,16 Z" stroke="#000000" stroke-width="2" stroke-linecap="round" stroke-linejoin="round"></path></g></g></g></svg>