<?xml version="1.0" encoding="UTF-8"?>
<svg width="100pt" height="100pt" version="1.1" viewBox="0 0 100 100" xmlns="http://www.w3.org/2000/svg">
 <g>
  <path d="m77.734 1.5391c-0.73047 0.86719-1.4375 1.7109-1.5508 1.8828l-0.21875 0.29688 0.67188 0.55859c0.37891 0.29688 0.68359 0.58203 0.68359 0.62891 0.011719 0.046875-0.16016 0.054688-0.35156 0.023438-1.8555-0.23828-30.145-0.54688-42.051-0.45703l-9.4375 0.078125-2.4141-3.6719-0.60156 0.34375c-1.1953 0.67188-3.8398 2.0742-5.4336 2.8711-2.6797 1.3438-7.043 3.8867-7.043 4.1133 0 0.070313 2.6445 4.1367 2.8008 4.2969 0.011719 0.023438 0.26172-0.089844 0.54688-0.25l0.52344-0.29688v0.32031c0 0.17188-0.078125 1.3906-0.17188 2.7031-0.87891 12.344-2.1758 42.016-2.9648 67.68-0.10156 3.1914-0.19531 5.8438-0.20703 5.8906-0.011719 0.042969-0.58203-0.26172-1.2539-0.67188-1.0352-0.62891-1.2656-0.71875-1.3906-0.59375-0.070313 0.09375-0.68359 1.0703-1.3438 2.1758l-1.207 2.0195 2.5312 1.4688 2.5312 1.4805 0.058594 0.90234c0.089844 1.4258 0.34375 1.5938 2.0273 1.3438 0.60156-0.089843 1.1836-0.17188 1.2852-0.17188 0.10156 0 1.3008 0.68359 2.6797 1.5273 1.3672 0.84375 2.5312 1.5039 2.5625 1.4805 0.046875-0.023438 0.54688-0.80859 1.1172-1.7422l1.0469-1.6875 1.8438-0.082031c5.5391-0.21484 20.387-0.45703 39.512-0.63672 6.8047-0.054687 13.426-0.13672 14.734-0.17188 1.4336-0.046875 2.3594-0.023437 2.3594 0.046875 0 0.054688-0.19531 0.26172-0.42188 0.44531l-0.42188 0.34375 0.73828 0.78516c0.41016 0.44531 1.207 1.332 1.7773 1.9922l1.0273 1.1992 3.7383-2.8281c3.4414-2.6094 5.6875-4.3984 7.2266-5.7891l0.61328-0.55859-1.3555-1.5156c-0.73828-0.84375-1.5391-1.7422-1.7539-2.0078l-0.39844-0.48828-0.85547 0.68359c-0.46875 0.36328-0.89063 0.67188-0.93359 0.68359-0.38672 0.023437-0.79688-11.371-1.2891-35.898-0.44531-22.281-0.91016-35.215-1.3789-38.859l-0.070313-0.51172 0.33203 0.30859c0.18359 0.17969 0.37891 0.32031 0.44531 0.30859 0.21484-0.011719 3.168-3.6484 3.043-3.75-0.042969-0.042969-0.62891-0.54688-1.2852-1.1055-1.5156-1.3008-2.9062-2.5977-6.3711-5.9609-1.5156-1.4688-2.8008-2.6914-2.8594-2.7109-0.042969-0.027344-0.69141 0.66797-1.4219 1.5352zm-10.199 4.8203c8.1133 0.17188 11.75 0.32031 12.023 0.51172 0.125 0.089844 1.1836 1.0938 2.3594 2.2461l2.1211 2.0859 0.125 1.3086c0.67188 7.1094 0.99219 16.184 1.5508 44.047 0.375 18.562 0.75391 29.152 1.1406 32.422l0.070312 0.51172-1.6875 1.2539c-0.92188 0.68359-2.0859 1.5859-2.5859 1.9727l-0.90234 0.73047-7.9297 0.10156c-4.3633 0.042969-13.082 0.14844-19.383 0.21484-12.832 0.13672-22.164 0.28516-28.434 0.45703-2.3125 0.070313-4.6016 0.125-5.0703 0.13672l-0.85547 0.023437-1.8242-1.1289c-1.0039-0.61328-2.7695-1.6875-3.918-2.3711l-2.0977-1.2422 0.078125-3.2695c0.22656-9.8828 1.2422-36.613 1.9492-51.406 0.54688-11.305 1.3086-23.863 1.4609-24 0.011719-0.011719 1.3555-0.71875 2.9844-1.5625 1.6289-0.84375 3.5547-1.8906 4.2734-2.3125l1.3086-0.78516 2.5664-0.070313c3.7852-0.10156 34.406-0.011719 40.676 0.125z"/>
  <path d="m46.27 20.832c-1.8906 0.19531-3.875 0.82031-5.3203 1.6641-2.4844 1.4492-4.8555 4.0234-6.1758 6.7109-1.1602 2.3594-1.4258 3.8984-1.5039 8.7188-0.046875 2.8477-0.023437 3.625 0.11328 4.2969 0.23828 1.1172 1.207 3.5312 2.1641 5.3906 0.43359 0.84375 0.86719 1.7891 0.95703 2.1094 0.34375 1.1406 2.1445 4.5117 3.8633 7.2344 0.76172 1.2188 0.89062 1.7109 0.89844 3.418 0 1.3086-0.035156 1.6055-0.22656 1.9922-0.16016 0.32031-0.28516 0.44531-0.43359 0.42187-0.11328-0.023437-0.93359 0.32031-1.8242 0.75391-0.89062 0.44531-2.793 1.2656-4.2383 1.8359-1.4375 0.55859-3.875 1.5156-5.4023 2.1172-4.4336 1.7539-5.7305 2.4727-7.2578 4.0586-1.6289 1.7109-2.5664 3.4766-3.1797 6.0859-0.45703 1.8828-0.64062 3.7617-0.70703 7.3164l-0.066406 3.3398h64.988v-2.8281c0-3.1211-0.17188-4.9688-0.63672-7.0781-1.1406-5.1055-3.4062-8.332-7.043-10.051-0.89062-0.42188-1.6406-0.67188-8.5586-2.8945-3.5312-1.1406-4.7383-1.6055-5.6875-2.1875-0.36328-0.22656-0.91016-0.48828-1.1953-0.59375-0.69531-0.25-0.80859-0.51172-0.89062-2.1406-0.082031-1.6641 0.035156-2.0859 0.76562-3.0195 1.5156-1.9375 2.8008-4.1484 4.043-6.9844 0.25-0.57031 0.60547-1.1836 0.78516-1.3672 0.42188-0.44531 0.86719-1.4219 1.4375-3.2031 0.77344-2.4492 1.0273-4.4219 1.0273-8.25 0-2.6211-0.14844-4.5039-0.45703-5.7539-0.73047-2.9414-3.3867-6.1641-6.8945-8.3438-1.4688-0.92187-4.3203-2.2695-5.3672-2.5508-0.78516-0.21875-1.2773-0.25-3.9766-0.27344-1.6875-0.023438-3.4883-0.003906-4 0.054687zm6.9961 7.3633c1.7109 0.36328 3.5 1.5742 4.2734 2.9062 0.98047 1.6758 1.1172 3.75 0.37891 5.5859-0.58203 1.4336-1.1055 2.1094-4.1953 5.4023-0.79688 0.84375-1.5625 1.7422-1.6875 1.9844-0.33203 0.64844-0.45703 1.3672-0.47656 2.6094 0 0.60547-0.054688 1.1953-0.11328 1.3008-0.089843 0.17969-0.28516 0.20703-1.5859 0.20703-0.82031 0-1.5859-0.046875-1.6992-0.11328-0.30859-0.16016-0.50391-1.207-0.50391-2.6758 0-2.1875 0.375-2.8594 3.2695-5.8828 1.082-1.1289 2.1562-2.3359 2.3945-2.6758 1.0469-1.5742 0.95703-3.3281-0.22656-4.375-0.69531-0.60547-1.457-0.84375-2.6562-0.84375-1.1055 0-2.0273 0.22656-3.4062 0.80859-0.67188 0.28516-1.0039 0.375-1.1289 0.30859-0.22656-0.14844-1.0703-2.543-1.0039-2.8477 0.082031-0.29688 0.84375-0.71875 2.1211-1.1602 2.2109-0.78906 4.2188-0.94922 6.2461-0.53906zm-2.1523 22.266c1.5273 0.77734 1.7188 2.9844 0.34375 3.9766-1.1719 0.85547-2.668 0.69531-3.6133-0.375-0.41016-0.46875-0.52344-0.95703-0.45703-1.8438 0.13672-1.6211 2.1406-2.5781 3.7266-1.7578z"/>
 </g>
</svg>
