<?xml version="1.0" encoding="utf-8"?>
<!-- Generator: Adobe Illustrator 18.0.0, SVG Export Plug-In . SVG Version: 6.00 Build 0)  -->
<!DOCTYPE svg PUBLIC "-//W3C//DTD SVG 1.1//EN" "http://www.w3.org/Graphics/SVG/1.1/DTD/svg11.dtd">
<svg version="1.1" id="Layer_2" xmlns="http://www.w3.org/2000/svg" xmlns:xlink="http://www.w3.org/1999/xlink" x="0px" y="0px"
	 viewBox="0 0 253.6 253.6" enable-background="new 0 0 253.6 253.6" xml:space="preserve">
<g>
	<path opacity="0.7" fill-rule="evenodd" clip-rule="evenodd" fill="#FFC920" d="M191.9,130.9L139,78h52.9V130.9z"/>
	<path opacity="0.7" fill-rule="evenodd" clip-rule="evenodd" fill="#FFC920" d="M102,32.4l52.9,52.9H102V32.4z"/>
	<path opacity="0.9" fill-rule="evenodd" clip-rule="evenodd" fill="#FFCE39" d="M103.7,115.2L50.8,62.4c0,0,38.2,0,49.7,0
		c2,0,13.9,0,13.9,0v52.9L103.7,115.2z"/>
	<path opacity="0.9" fill-rule="evenodd" clip-rule="evenodd" fill="#FFCE39" d="M150.1,168.1L203,221h-52.9V168.1z"/>
	<path opacity="0.7" fill-rule="evenodd" clip-rule="evenodd" fill="#FFE38F" d="M114.4,168.1l-52.9-52.9c0,0,27.5,0,39,0
		c2,0,13.9,0,13.9,0V168.1L114.4,168.1z"/>
	<path opacity="0.7" fill-rule="evenodd" clip-rule="evenodd" fill="#FFE38F" d="M171.3,141.4l-42.2-42.2h42.2V141.4z"/>
	<path opacity="0.7" fill-rule="evenodd" clip-rule="evenodd" fill="#FFE38F" d="M176.3,216.1l-48-48h48V216.1z"/>
	<path opacity="0.9" fill-rule="evenodd" clip-rule="evenodd" fill="#FBBB7C" d="M114.4,104.5L61.5,51.6h52.8V104.5z"/>
	<path opacity="0.8" fill-rule="evenodd" clip-rule="evenodd" fill="#F89F40" d="M128.5,168.1l52.9,52.9c0,0-27.5,0-39,0
		c-2,0-13.9,0-13.9,0V168.1L128.5,168.1z"/>
	<path opacity="0.7" fill-rule="evenodd" clip-rule="evenodd" fill="#F89F40" d="M182,189.3l-52.8-52.8H182V189.3z"/>
	<path opacity="0.9" fill-rule="evenodd" clip-rule="evenodd" fill="#FFCE39" d="M129.1,99.2l52.2,52.2c0,0-27.2,0-38.5,0
		c-2,0-13.7,0-13.7,0L129.1,99.2L129.1,99.2z"/>
	<path opacity="0.7" fill-rule="evenodd" clip-rule="evenodd" fill="#FFC637" d="M114.4,220.8L50.6,157c0,0,33.2,0,47,0
		c2.4,0,16.8,0,16.8,0V220.8L114.4,220.8z"/>
</g>
</svg>
